<!DOCTYPE svg PUBLIC "-//W3C//DTD SVG 20010904//EN" "http://www.w3.org/TR/2001/REC-SVG-20010904/DTD/svg10.dtd">
<svg version="1.0" xmlns="http://www.w3.org/2000/svg" width="752px" height="452px" viewBox="0 0 7520 4520" preserveAspectRatio="xMidYMid meet">
<g id="layer101" fill="#4572c4" stroke="none">
<path d="M0 2260 l0 -2260 3760 0 3760 0 0 2260 0 2260 -3760 0 -3760 0 0 -2260z"/>
</g>
<g id="layer102" fill="#9b7c6d" stroke="none">
<path d="M0 2260 l0 -2260 3760 0 3760 0 0 2260 0 2260 -3760 0 -3760 0 0 -2260z m3305 1955 c0 -19 -8 -20 -214 -23 -127 -1 -219 2 -224 7 -5 5 -7 17 -4 26 6 13 33 15 224 13 210 -3 218 -4 218 -23z m3512 -921 c3 -8 2 -19 -3 -24 -5 -5 -230 -38 -500 -74 l-491 -66 -479 0 -479 0 -411 -397 c-226 -219 -425 -411 -441 -426 -17 -16 -52 -35 -79 -43 l-49 -14 60 59 c33 33 249 242 480 465 l419 406 491 0 490 1 460 63 c519 72 523 72 532 50z m-5337 -1104 l484 -200 475 0 475 0 135 36 c75 20 278 74 451 121 173 47 330 89 347 93 l33 8 -21 -29 c-11 -16 -24 -31 -28 -33 -5 -3 -211 -60 -458 -126 l-450 -120 -485 0 -484 0 -490 201 c-269 111 -493 205 -498 210 -12 10 0 39 16 39 7 0 231 -90 498 -200z"/>
</g>
<g id="layer103" fill="#ed7d31" stroke="none">
<path d="M0 2260 l0 -2260 3760 0 3760 0 0 2260 0 2260 -3760 0 -3760 0 0 -2260z m3468 1917 c26 -2 7 -3 -43 -4 -49 0 -72 2 -50 5 36 4 38 6 15 12 -24 8 -24 8 -2 9 12 1 22 6 22 11 0 6 -10 10 -22 11 l-23 1 23 6 c13 4 23 10 23 15 -1 4 0 13 1 20 1 6 3 -9 5 -35 l4 -47 47 -4z m185 86 c-13 -2 -33 -2 -45 0 -13 2 -3 4 22 4 25 0 35 -2 23 -4z m805 -86 c26 -2 7 -3 -43 -4 -49 0 -72 2 -50 5 36 4 38 6 15 12 -24 8 -24 8 -2 9 12 1 22 6 22 11 0 6 -10 10 -22 11 l-23 1 23 6 c13 4 23 10 23 15 -1 4 0 13 1 20 1 6 3 -9 5 -35 l4 -47 47 -4z m220 50 l3 -37 -78 2 -78 2 73 3 c72 4 72 4 72 33 0 15 -5 31 -10 33 -6 3 -5 4 2 3 7 -1 14 -19 16 -39z m-1311 27 c-3 -3 -12 -4 -19 -1 -8 3 -5 6 6 6 11 1 17 -2 13 -5z m117 -8 c-10 -8 -21 -12 -24 -10 -5 6 21 24 34 24 6 0 1 -6 -10 -14z m873 8 c-3 -3 -12 -4 -19 -1 -8 3 -5 6 6 6 11 1 17 -2 13 -5z m117 -8 c-10 -8 -21 -12 -24 -10 -5 6 21 24 34 24 6 0 1 -6 -10 -14z m166 -17 c0 -15 -7 -19 -35 -19 -30 0 -35 3 -35 23 0 20 4 23 35 19 26 -3 35 -9 35 -23z m-944 9 c4 -7 4 -10 -1 -6 -4 4 -14 3 -22 -4 -11 -8 -12 -7 -7 6 7 19 20 21 30 4z m-391 -23 c0 -19 -8 -20 -214 -23 -127 -1 -219 2 -224 7 -5 5 -7 17 -4 26 6 13 33 15 224 13 210 -3 218 -4 218 -23z m295 15 c0 -5 -2 -10 -4 -10 -3 0 -8 5 -11 10 -3 6 -1 10 4 10 6 0 11 -4 11 -10z m37 -7 c-4 -3 -10 -3 -14 0 -3 4 0 7 7 7 7 0 10 -3 7 -7z m-147 -15 c0 -5 -14 -8 -31 -8 -16 0 -28 3 -26 8 3 4 17 7 31 7 14 0 26 -3 26 -7z m990 0 c0 -5 -14 -8 -31 -8 -16 0 -28 3 -26 8 3 4 17 7 31 7 14 0 26 -3 26 -7z m-823 -15 c-4 -3 -7 0 -7 7 0 7 3 10 7 7 3 -4 3 -10 0 -14z m3 -18 c0 -2 -15 -5 -33 -7 -20 -2 -34 1 -34 7 0 6 14 9 34 7 18 -2 33 -5 33 -7z m-100 -17 c0 -6 -6 -5 -15 2 -8 7 -15 14 -15 16 0 2 7 1 15 -2 8 -4 15 -11 15 -16z m1090 1 c0 -18 -5 -20 -42 -17 -31 2 -44 8 -46 21 -3 14 4 17 42 17 40 0 46 -3 46 -21z m-1192 -6 c-15 -2 -42 -2 -60 0 -18 2 -6 4 27 4 33 0 48 -2 33 -4z m211 -40 c13 -10 9 -10 -19 -1 -19 6 -41 12 -47 14 -7 2 -13 9 -12 16 0 10 2 10 6 1 7 -20 43 -16 44 5 1 14 2 14 6 -3 3 -11 13 -25 22 -32z m779 40 c-15 -2 -42 -2 -60 0 -18 2 -6 4 27 4 33 0 48 -2 33 -4z m-990 -20 c-15 -2 -42 -2 -60 0 -18 2 -6 4 27 4 33 0 48 -2 33 -4z m109 -10 c-4 -3 -7 0 -7 7 0 7 3 10 7 7 3 -4 3 -10 0 -14z m881 10 c-15 -2 -42 -2 -60 0 -18 2 -6 4 27 4 33 0 48 -2 33 -4z m207 -10 c-22 -3 -43 -10 -47 -16 -6 -9 -8 -9 -8 0 0 6 -17 14 -37 16 -21 2 0 4 47 4 47 0 67 -2 45 -4z m-1197 -10 c-15 -2 -42 -2 -60 0 -18 2 -6 4 27 4 33 0 48 -2 33 -4z m990 0 c-15 -2 -42 -2 -60 0 -18 2 -6 4 27 4 33 0 48 -2 33 -4z m-3425 -284 c15 -25 1 -49 -28 -49 -38 0 -29 -33 10 -41 30 -7 30 -7 3 -8 -45 -2 -72 54 -47 100 12 24 47 22 62 -2z m936 -1 c5 -13 16 -40 25 -60 l16 -38 -42 2 c-37 1 -38 2 -11 5 l32 4 -19 50 c-21 53 -23 59 -15 59 3 0 9 -10 14 -22z m995 16 c18 -7 22 -39 6 -49 -8 -5 -8 -11 0 -20 15 -18 1 -45 -24 -45 -33 0 -47 19 -34 44 8 15 8 21 -1 24 -6 2 -11 12 -11 22 0 25 31 37 64 24z m960 -13 c22 -24 18 -80 -6 -95 -25 -15 -53 4 -53 35 0 20 6 25 33 27 28 3 31 6 22 22 -5 10 -22 21 -37 23 l-28 4 26 2 c14 0 34 -7 43 -18z m924 12 c-14 -4 -18 -15 -18 -59 0 -55 -8 -66 -30 -39 -11 13 -10 14 4 9 13 -5 16 1 16 39 0 35 -4 47 -17 50 -10 3 0 5 22 5 22 0 32 -2 23 -5z m101 -7 c17 -21 10 -87 -11 -100 -28 -17 -52 5 -56 48 -4 41 11 66 38 66 10 0 23 -6 29 -14z m869 7 c-14 -4 -18 -15 -18 -59 0 -55 -8 -66 -30 -39 -11 13 -10 14 4 9 13 -5 16 1 16 39 0 35 -4 47 -17 50 -10 3 0 5 22 5 22 0 32 -2 23 -5z m100 0 c-14 -4 -18 -15 -18 -59 0 -55 -8 -66 -30 -39 -11 13 -10 14 4 9 13 -5 16 1 16 39 0 35 -4 47 -17 50 -10 3 0 5 22 5 22 0 32 -2 23 -5z m870 0 c-14 -4 -18 -15 -18 -59 0 -55 -8 -66 -30 -39 -11 13 -10 14 4 9 13 -5 16 1 16 39 0 35 -4 47 -17 50 -10 3 0 5 22 5 22 0 32 -2 23 -5z m84 0 l-33 -4 26 -31 c31 -37 30 -72 -4 -76 -13 -2 -28 2 -35 8 -8 9 -5 10 15 5 41 -10 45 19 8 66 l-31 39 44 -2 c37 -1 38 -2 10 -5z m-6543 -247 c17 -21 10 -87 -11 -100 -28 -17 -52 5 -56 48 -4 41 11 66 38 66 10 0 23 -6 29 -14z m6498 -302 c3 -8 2 -19 -3 -24 -5 -5 -230 -38 -500 -74 l-491 -66 -479 0 -479 0 -443 -428 c-408 -396 -446 -430 -489 -439 l-46 -11 59 58 c33 32 248 241 479 464 l419 406 491 0 490 1 460 63 c519 72 523 72 532 50z m-6496 -360 c16 -20 1 -48 -30 -52 -32 -5 -28 -40 7 -45 25 -4 25 -4 -5 -6 -30 -1 -33 2 -33 28 0 23 5 30 23 33 34 5 30 43 -5 43 -14 -1 -24 3 -22 7 9 14 51 9 65 -8z m1159 -744 l484 -200 475 0 475 0 135 36 c75 20 278 74 451 121 173 47 329 89 347 93 l32 8 -21 -32 c-21 -32 -29 -34 -482 -154 l-461 -123 -481 1 -480 0 -490 201 c-269 111 -493 205 -498 210 -12 10 0 39 16 39 7 0 231 -90 498 -200z m-1262 83 c-14 -4 -18 -15 -18 -59 0 -55 -8 -66 -30 -39 -11 13 -10 14 4 9 13 -5 16 1 16 39 0 35 -4 47 -17 50 -10 3 0 5 22 5 22 0 32 -2 23 -5z m100 -5 c16 -16 16 -80 0 -96 -31 -31 -68 -1 -68 55 0 32 16 53 40 53 9 0 21 -5 28 -12z m-100 -655 c-14 -4 -18 -15 -18 -59 0 -55 -8 -66 -30 -39 -11 13 -10 14 4 9 13 -5 16 1 16 39 0 35 -4 47 -17 50 -10 3 0 5 22 5 22 0 32 -2 23 -5z m103 -9 c16 -20 1 -48 -30 -52 -32 -5 -28 -40 7 -45 25 -4 25 -4 -5 -6 -30 -1 -33 2 -33 28 0 23 5 30 23 33 34 5 30 43 -5 43 -14 -1 -24 3 -22 7 9 14 51 9 65 -8z m-119 -651 l-33 -4 26 -31 c31 -37 30 -72 -4 -76 -13 -2 -28 2 -35 8 -8 9 -4 10 16 5 43 -11 46 17 8 65 l-32 40 44 -2 c37 -1 38 -2 10 -5z m116 -5 c16 -16 16 -80 0 -96 -31 -31 -68 -1 -68 55 0 32 16 53 40 53 9 0 21 -5 28 -12z m-116 -655 l-33 -4 26 -31 c31 -37 30 -72 -4 -76 -13 -2 -28 2 -35 8 -8 9 -4 10 16 5 43 -11 46 17 8 65 l-32 40 44 -2 c37 -1 38 -2 10 -5z m119 -9 c16 -20 1 -48 -30 -52 -32 -5 -28 -40 7 -45 25 -4 25 -4 -5 -6 -30 -1 -33 2 -33 28 0 23 5 30 23 33 34 5 30 43 -5 43 -14 -1 -24 3 -22 7 9 14 51 9 65 -8z"/>
</g>
<g id="layer104" fill="#dddddd" stroke="none">
<path d="M0 2260 l0 -2260 3760 0 3760 0 0 2260 0 2260 -3760 0 -3760 0 0 -2260z m3468 1917 c26 -2 7 -3 -43 -4 -49 0 -72 2 -50 5 36 4 38 6 15 12 -24 8 -24 8 -2 9 12 1 22 6 22 11 0 6 -10 10 -22 11 l-23 1 23 6 c13 4 23 10 23 15 -1 4 0 13 1 20 1 6 3 -9 5 -35 l4 -47 47 -4z m185 86 c-13 -2 -33 -2 -45 0 -13 2 -3 4 22 4 25 0 35 -2 23 -4z m805 -86 c26 -2 7 -3 -43 -4 -49 0 -72 2 -50 5 36 4 38 6 15 12 -24 8 -24 8 -2 9 12 1 22 6 22 11 0 6 -10 10 -22 11 l-23 1 23 6 c13 4 23 10 23 15 -1 4 0 13 1 20 1 6 3 -9 5 -35 l4 -47 47 -4z m220 50 l3 -37 -78 2 -78 2 73 3 c72 4 72 4 72 33 0 15 -5 31 -10 33 -6 3 -5 4 2 3 7 -1 14 -19 16 -39z m-1311 27 c-3 -3 -12 -4 -19 -1 -8 3 -5 6 6 6 11 1 17 -2 13 -5z m117 -8 c-10 -8 -21 -12 -24 -10 -5 6 21 24 34 24 6 0 1 -6 -10 -14z m873 8 c-3 -3 -12 -4 -19 -1 -8 3 -5 6 6 6 11 1 17 -2 13 -5z m117 -8 c-10 -8 -21 -12 -24 -10 -5 6 21 24 34 24 6 0 1 -6 -10 -14z m166 -17 c0 -15 -7 -19 -35 -19 -30 0 -35 3 -35 23 0 20 4 23 35 19 26 -3 35 -9 35 -23z m-944 9 c4 -7 4 -10 -1 -6 -4 4 -14 3 -22 -4 -11 -8 -12 -7 -7 6 7 19 20 21 30 4z m-391 -23 c0 -19 -8 -20 -214 -23 -127 -1 -219 2 -224 7 -5 5 -7 17 -4 26 6 13 33 15 224 13 210 -3 218 -4 218 -23z m295 15 c0 -5 -2 -10 -4 -10 -3 0 -8 5 -11 10 -3 6 -1 10 4 10 6 0 11 -4 11 -10z m695 -15 c0 -19 -8 -20 -214 -23 -127 -1 -219 2 -224 7 -5 5 -7 17 -4 26 6 13 33 15 224 13 210 -3 218 -4 218 -23z m-658 8 c-4 -3 -10 -3 -14 0 -3 4 0 7 7 7 7 0 10 -3 7 -7z m-147 -15 c0 -5 -14 -8 -31 -8 -16 0 -28 3 -26 8 3 4 17 7 31 7 14 0 26 -3 26 -7z m990 0 c0 -5 -14 -8 -31 -8 -16 0 -28 3 -26 8 3 4 17 7 31 7 14 0 26 -3 26 -7z m-823 -15 c-4 -3 -7 0 -7 7 0 7 3 10 7 7 3 -4 3 -10 0 -14z m3 -18 c0 -2 -15 -5 -33 -7 -20 -2 -34 1 -34 7 0 6 14 9 34 7 18 -2 33 -5 33 -7z m-100 -17 c0 -6 -6 -5 -15 2 -8 7 -15 14 -15 16 0 2 7 1 15 -2 8 -4 15 -11 15 -16z m1090 1 c0 -18 -5 -20 -42 -17 -31 2 -44 8 -46 21 -3 14 4 17 42 17 40 0 46 -3 46 -21z m-1192 -6 c-15 -2 -42 -2 -60 0 -18 2 -6 4 27 4 33 0 48 -2 33 -4z m211 -40 c13 -10 9 -10 -19 -1 -19 6 -41 12 -47 14 -7 2 -13 9 -12 16 0 10 2 10 6 1 7 -20 43 -16 44 5 1 14 2 14 6 -3 3 -11 13 -25 22 -32z m779 40 c-15 -2 -42 -2 -60 0 -18 2 -6 4 27 4 33 0 48 -2 33 -4z m-990 -20 c-15 -2 -42 -2 -60 0 -18 2 -6 4 27 4 33 0 48 -2 33 -4z m109 -10 c-4 -3 -7 0 -7 7 0 7 3 10 7 7 3 -4 3 -10 0 -14z m881 10 c-15 -2 -42 -2 -60 0 -18 2 -6 4 27 4 33 0 48 -2 33 -4z m207 -10 c-22 -3 -43 -10 -47 -16 -6 -9 -8 -9 -8 0 0 6 -17 14 -37 16 -21 2 0 4 47 4 47 0 67 -2 45 -4z m-1197 -10 c-15 -2 -42 -2 -60 0 -18 2 -6 4 27 4 33 0 48 -2 33 -4z m990 0 c-15 -2 -42 -2 -60 0 -18 2 -6 4 27 4 33 0 48 -2 33 -4z m-3425 -284 c15 -25 1 -49 -28 -49 -38 0 -29 -33 10 -41 30 -7 30 -7 3 -8 -45 -2 -72 54 -47 100 12 24 47 22 62 -2z m936 -1 c5 -13 16 -40 25 -60 l16 -38 -42 2 c-37 1 -38 2 -11 5 l32 4 -19 50 c-21 53 -23 59 -15 59 3 0 9 -10 14 -22z m995 16 c18 -7 22 -39 6 -49 -8 -5 -8 -11 0 -20 15 -18 1 -45 -24 -45 -33 0 -47 19 -34 44 8 15 8 21 -1 24 -6 2 -11 12 -11 22 0 25 31 37 64 24z m960 -13 c22 -24 18 -80 -6 -95 -25 -15 -53 4 -53 35 0 20 6 25 33 27 28 3 31 6 22 22 -5 10 -22 21 -37 23 l-28 4 26 2 c14 0 34 -7 43 -18z m924 12 c-14 -4 -18 -15 -18 -59 0 -55 -8 -66 -30 -39 -11 13 -10 14 4 9 13 -5 16 1 16 39 0 35 -4 47 -17 50 -10 3 0 5 22 5 22 0 32 -2 23 -5z m101 -7 c17 -21 10 -87 -11 -100 -28 -17 -52 5 -56 48 -4 41 11 66 38 66 10 0 23 -6 29 -14z m869 7 c-14 -4 -18 -15 -18 -59 0 -55 -8 -66 -30 -39 -11 13 -10 14 4 9 13 -5 16 1 16 39 0 35 -4 47 -17 50 -10 3 0 5 22 5 22 0 32 -2 23 -5z m100 0 c-14 -4 -18 -15 -18 -59 0 -55 -8 -66 -30 -39 -11 13 -10 14 4 9 13 -5 16 1 16 39 0 35 -4 47 -17 50 -10 3 0 5 22 5 22 0 32 -2 23 -5z m870 0 c-14 -4 -18 -15 -18 -59 0 -55 -8 -66 -30 -39 -11 13 -10 14 4 9 13 -5 16 1 16 39 0 35 -4 47 -17 50 -10 3 0 5 22 5 22 0 32 -2 23 -5z m84 0 l-33 -4 26 -31 c31 -37 30 -72 -4 -76 -13 -2 -28 2 -35 8 -8 9 -5 10 15 5 41 -10 45 19 8 66 l-31 39 44 -2 c37 -1 38 -2 10 -5z m-6543 -247 c17 -21 10 -87 -11 -100 -28 -17 -52 5 -56 48 -4 41 11 66 38 66 10 0 23 -6 29 -14z m6498 -302 c3 -8 2 -19 -3 -24 -5 -5 -230 -38 -500 -74 l-491 -66 -479 0 -479 0 -437 -423 c-240 -232 -435 -423 -434 -424 1 -1 194 52 429 118 l427 120 458 186 c251 102 473 190 492 195 33 9 68 -3 509 -181 261 -106 482 -196 493 -202 21 -11 24 -37 5 -45 -7 -2 -230 83 -496 190 l-484 195 -496 -198 c-490 -196 -500 -199 -881 -305 -572 -160 -540 -149 -575 -199 -16 -23 -97 -134 -180 -247 -83 -113 -287 -391 -454 -617 -167 -227 -307 -413 -313 -413 -5 0 -227 148 -493 329 l-484 330 -88 -24 c-636 -172 -879 -235 -890 -231 -21 8 -15 36 9 46 24 9 859 235 936 252 35 8 48 6 72 -9 17 -10 230 -154 474 -321 244 -166 448 -302 453 -302 5 0 116 145 246 323 131 177 333 453 451 612 117 160 212 291 211 293 -1 1 -205 -52 -452 -118 l-450 -120 -485 0 -484 0 -495 204 c-482 199 -533 224 -485 242 9 4 226 -80 503 -195 l488 -201 475 0 475 0 415 111 c228 62 446 120 485 131 64 17 77 25 145 92 41 41 257 250 480 465 l404 391 491 0 490 1 460 63 c519 72 523 72 532 50z m-6496 -360 c16 -20 1 -48 -30 -52 -32 -5 -28 -40 7 -45 25 -4 25 -4 -5 -6 -30 -1 -33 2 -33 28 0 23 5 30 23 33 34 5 30 43 -5 43 -14 -1 -24 3 -22 7 9 14 51 9 65 -8z m-103 -661 c-14 -4 -18 -15 -18 -59 0 -55 -8 -66 -30 -39 -11 13 -10 14 4 9 13 -5 16 1 16 39 0 35 -4 47 -17 50 -10 3 0 5 22 5 22 0 32 -2 23 -5z m100 -5 c16 -16 16 -80 0 -96 -31 -31 -68 -1 -68 55 0 32 16 53 40 53 9 0 21 -5 28 -12z m-100 -655 c-14 -4 -18 -15 -18 -59 0 -55 -8 -66 -30 -39 -11 13 -10 14 4 9 13 -5 16 1 16 39 0 35 -4 47 -17 50 -10 3 0 5 22 5 22 0 32 -2 23 -5z m103 -9 c16 -20 1 -48 -30 -52 -32 -5 -28 -40 7 -45 25 -4 25 -4 -5 -6 -30 -1 -33 2 -33 28 0 23 5 30 23 33 34 5 30 43 -5 43 -14 -1 -24 3 -22 7 9 14 51 9 65 -8z m-119 -651 l-33 -4 26 -31 c31 -37 30 -72 -4 -76 -13 -2 -28 2 -35 8 -8 9 -4 10 16 5 43 -11 46 17 8 65 l-32 40 44 -2 c37 -1 38 -2 10 -5z m116 -5 c16 -16 16 -80 0 -96 -31 -31 -68 -1 -68 55 0 32 16 53 40 53 9 0 21 -5 28 -12z m-116 -655 l-33 -4 26 -31 c31 -37 30 -72 -4 -76 -13 -2 -28 2 -35 8 -8 9 -4 10 16 5 43 -11 46 17 8 65 l-32 40 44 -2 c37 -1 38 -2 10 -5z m119 -9 c16 -20 1 -48 -30 -52 -32 -5 -28 -40 7 -45 25 -4 25 -4 -5 -6 -30 -1 -33 2 -33 28 0 23 5 30 23 33 34 5 30 43 -5 43 -14 -1 -24 3 -22 7 9 14 51 9 65 -8z"/>
<path d="M977 3834 c-4 -4 -7 -16 -7 -26 0 -14 6 -19 23 -16 14 2 22 10 22 23 0 20 -25 32 -38 19z"/>
<path d="M2905 3830 c-4 -7 -3 -16 3 -22 14 -14 47 -6 47 12 0 18 -40 26 -50 10z"/>
<path d="M2917 3774 c-14 -15 -6 -34 14 -34 14 0 19 5 17 17 -3 18 -20 27 -31 17z"/>
<path d="M3866 3781 c-9 -14 4 -41 20 -41 15 0 37 34 27 44 -9 9 -41 7 -47 -3z"/>
<path d="M4884 3815 c-9 -38 3 -75 26 -75 23 0 35 37 26 75 -4 16 -13 25 -26 25 -13 0 -22 -9 -26 -25z"/>
<path d="M264 3575 c-9 -38 3 -75 26 -75 13 0 22 9 26 25 9 38 -3 75 -26 75 -13 0 -22 -9 -26 -25z"/>
<path d="M264 2245 c-9 -38 3 -75 26 -75 13 0 22 9 26 25 9 38 -3 75 -26 75 -13 0 -22 -9 -26 -25z"/>
<path d="M272 938 c-25 -25 -11 -88 19 -88 22 0 34 38 25 75 -7 27 -25 32 -44 13z"/>
</g>
<g id="layer105" fill="#fdfdfd" stroke="none">
<path d="M20 2260 l0 -2240 3740 0 3740 0 0 2240 0 2240 -3740 0 -3740 0 0 -2240z m3425 1999 c4 -6 20 -8 38 -4 26 5 29 4 14 -5 -13 -9 -15 -15 -7 -31 10 -17 7 -19 -30 -19 -56 0 -50 -18 8 -23 26 -2 7 -4 -43 -4 -49 -1 -84 1 -77 4 6 2 12 20 12 38 0 18 -6 36 -12 39 -7 4 4 4 25 2 20 -3 37 -1 37 5 0 12 27 12 35 -2z m125 -2 c0 -18 88 -37 94 -20 7 18 33 16 40 -2 3 -8 1 -15 -4 -15 -6 0 -10 5 -10 12 0 17 -16 -2 -24 -28 -5 -17 -1 -23 16 -29 22 -8 22 -8 -4 -12 -20 -3 -28 -10 -28 -24 0 -10 7 -19 15 -19 8 0 15 -4 15 -9 0 -4 -20 -4 -45 2 l-45 10 0 54 c0 33 -4 53 -11 53 -8 0 -10 -20 -7 -65 3 -36 3 -65 -1 -65 -4 0 -13 17 -21 38 -8 20 -17 41 -19 46 -2 5 1 6 8 2 7 -5 11 7 11 38 0 25 5 46 10 46 6 0 10 -6 10 -13z m88 6 c-16 -2 -40 -2 -55 0 -16 2 -3 4 27 4 30 0 43 -2 28 -4z m777 -4 c4 -6 20 -8 38 -4 26 5 29 4 14 -5 -13 -9 -15 -15 -7 -31 10 -17 7 -19 -30 -19 -56 0 -50 -18 8 -23 26 -2 7 -4 -43 -4 -49 -1 -84 1 -77 4 6 2 12 20 12 38 0 18 -6 36 -12 39 -7 4 4 4 25 2 20 -3 37 -1 37 5 0 12 27 12 35 -2z m115 -24 l0 -35 60 0 c60 0 60 0 60 29 0 16 -6 32 -12 34 -8 3 -6 6 5 6 13 1 17 -7 17 -39 l0 -40 -75 0 -75 0 0 40 c0 22 5 40 10 40 6 0 10 -16 10 -35z m90 -2 c0 -20 -5 -23 -35 -23 -30 0 -35 3 -35 23 0 19 5 22 35 22 30 0 35 -3 35 -22z m-1335 -18 c0 -19 -8 -20 -214 -23 -127 -1 -219 2 -224 7 -5 5 -7 17 -4 26 6 13 33 15 224 13 210 -3 218 -4 218 -23z m990 0 c0 -19 -7 -20 -220 -20 l-220 0 -3 23 -3 22 223 -2 c215 -3 223 -4 223 -23z m355 -55 c0 -17 -7 -20 -45 -20 -38 0 -45 3 -45 20 0 17 7 20 45 20 38 0 45 -3 45 -20z m-1160 -25 c0 -24 -2 -25 -65 -25 -63 0 -65 1 -65 25 0 24 2 25 65 25 63 0 65 -1 65 -25z m990 0 c0 -24 -2 -25 -65 -25 -63 0 -65 1 -65 25 0 24 2 25 65 25 63 0 65 -1 65 -25z m173 -12 c-24 -2 -43 -9 -43 -16 0 -9 -2 -9 -8 0 -4 6 -25 13 -47 16 -22 2 1 4 50 4 50 0 71 -2 48 -4z m-3623 -294 c14 -26 -3 -49 -36 -49 -40 0 -24 -32 21 -43 14 -3 11 -5 -10 -6 -40 -1 -55 15 -55 59 0 20 5 41 12 48 19 19 56 14 68 -9z m949 -35 c11 -31 21 -58 21 -60 0 -2 -19 -3 -42 -2 -37 1 -39 2 -11 5 33 4 33 4 18 34 -30 56 -36 79 -21 79 7 0 23 -25 35 -56z m991 41 c10 -13 10 -19 -3 -33 -12 -14 -14 -21 -6 -29 19 -19 2 -43 -31 -43 -33 0 -51 23 -32 42 7 7 7 16 0 28 -6 10 -8 25 -5 34 8 21 60 21 77 1z m949 1 c7 -8 11 -34 9 -58 -3 -42 -4 -43 -38 -43 -32 0 -35 2 -35 30 0 25 4 30 28 33 15 2 27 7 27 11 0 12 -22 28 -45 34 -14 3 -10 5 11 6 17 0 37 -5 43 -13z m924 7 c-8 -3 -13 -25 -13 -59 0 -58 -10 -66 -46 -39 -17 13 -17 14 -1 15 13 0 17 9 17 39 0 22 -5 42 -12 44 -7 3 5 5 27 5 22 0 34 -2 28 -5z m111 -25 c15 -41 -3 -82 -36 -86 -35 -4 -62 34 -52 74 10 43 13 45 47 42 24 -2 34 -10 41 -30z m859 25 c-8 -3 -13 -25 -13 -59 0 -58 -10 -66 -46 -39 -17 13 -17 14 -1 15 13 0 17 9 17 39 0 22 -5 42 -12 44 -7 3 5 5 27 5 22 0 34 -2 28 -5z m100 0 c-8 -3 -13 -25 -13 -59 0 -58 -10 -66 -46 -39 -17 13 -17 14 -1 15 13 0 17 9 17 39 0 22 -5 42 -12 44 -7 3 5 5 27 5 22 0 34 -2 28 -5z m870 0 c-8 -3 -13 -25 -13 -59 0 -58 -10 -66 -46 -39 -17 13 -17 14 -1 15 13 0 17 9 17 39 0 22 -5 42 -12 44 -7 3 5 5 27 5 22 0 34 -2 28 -5z m85 0 l-28 -4 21 -28 c27 -37 22 -75 -10 -79 -13 -2 -28 1 -34 7 -9 9 -5 11 13 9 35 -4 38 31 5 62 -35 33 -32 40 18 39 29 -2 34 -3 15 -6z m-6534 -265 c15 -41 -3 -82 -36 -86 -35 -4 -62 34 -52 74 10 43 13 45 47 42 24 -2 34 -10 41 -30z m6946 -28 c0 -7 -1135 -10 -3385 -10 -2250 0 -3385 3 -3385 10 0 7 1135 10 3385 10 2250 0 3385 -3 3385 -10z m-463 -256 c9 -23 -7 -33 -62 -39 -28 -3 -57 -8 -65 -10 -8 -2 -42 -7 -75 -10 -33 -4 -67 -8 -75 -10 -8 -2 -40 -7 -70 -10 -140 -15 -425 -55 -520 -72 -19 -3 -272 -9 -561 -12 l-526 -6 -119 -113 -119 -113 615 1 c1548 2 2040 0 2040 -10 0 -6 -237 -11 -677 -12 l-678 -3 439 -176 c242 -97 445 -183 450 -192 8 -12 7 -20 -2 -29 -9 -9 -42 0 -149 42 -76 29 -158 62 -183 72 -52 23 -86 37 -117 49 -29 11 -65 26 -100 40 -16 7 -39 16 -53 22 -14 5 -36 14 -50 20 -14 5 -36 14 -50 20 -14 5 -36 14 -50 20 -14 5 -33 13 -42 18 -9 5 -55 24 -101 42 -76 31 -87 33 -118 22 -19 -7 -169 -66 -334 -133 -604 -242 -632 -253 -855 -313 -19 -5 -46 -12 -59 -15 -14 -3 -28 -7 -33 -10 -4 -3 -18 -7 -30 -9 -12 -3 -42 -11 -67 -19 -62 -19 -104 -30 -251 -71 l-125 -34 1618 0 c1071 -1 1617 -4 1617 -11 0 -7 -561 -10 -1662 -10 -1615 0 -1664 -1 -1694 -19 -17 -10 -57 -57 -89 -103 -33 -45 -68 -95 -79 -109 -12 -15 -29 -37 -38 -50 -9 -13 -30 -42 -47 -64 -17 -22 -56 -76 -88 -120 -31 -44 -72 -98 -90 -121 -18 -23 -33 -44 -33 -48 0 -3 860 -6 1910 -6 1267 0 1910 -3 1910 -10 0 -7 -646 -10 -1919 -10 l-1919 0 -26 -32 c-26 -33 -168 -227 -196 -268 -8 -12 -30 -41 -47 -64 -18 -22 -73 -96 -123 -163 l-90 -123 2160 0 c1424 0 2160 -3 2160 -10 0 -6 -744 -11 -2177 -12 -3079 -4 -4593 0 -4593 12 0 7 407 10 1183 10 l1182 0 -65 42 c-36 23 -67 45 -68 50 -2 4 -10 8 -18 8 -8 0 -14 5 -14 10 0 6 -6 10 -14 10 -8 0 -16 4 -18 8 -3 8 -120 88 -328 226 -58 39 -106 73 -108 78 -2 4 -10 8 -17 8 -7 0 -15 4 -17 8 -1 5 -61 47 -131 94 l-128 87 -67 -20 c-63 -18 -389 -106 -422 -113 -13 -4 -111 -30 -150 -41 -8 -2 -40 -11 -70 -19 -30 -8 -91 -24 -135 -36 -125 -33 -134 -34 -141 -15 -4 9 -2 21 3 26 9 9 173 56 453 130 41 11 82 22 90 24 8 2 67 17 130 34 63 16 126 34 140 40 17 7 -179 10 -622 10 -425 1 -648 4 -648 11 0 10 400 12 2147 10 l732 -1 46 63 c87 120 210 288 301 410 50 68 90 124 89 126 -2 3 -95 -21 -325 -85 -69 -19 -132 -36 -140 -38 -8 -2 -42 -11 -75 -20 -33 -9 -69 -18 -79 -20 -10 -3 -33 -9 -51 -15 -18 -6 -42 -13 -54 -15 -28 -7 -49 -12 -96 -27 -29 -8 -183 -13 -545 -15 -553 -4 -502 -8 -645 53 -16 7 -57 23 -90 37 -33 13 -100 41 -150 61 -49 21 -101 42 -115 48 -14 6 -33 14 -42 19 -10 5 -22 9 -28 9 -6 0 -33 11 -62 25 l-52 25 -383 0 c-245 0 -383 4 -383 10 0 6 129 11 353 12 l352 3 -60 23 c-159 63 -195 81 -195 97 0 33 37 25 214 -49 l184 -76 1257 0 1258 0 101 98 c56 53 171 165 256 248 85 82 189 182 230 222 l75 72 -2012 0 c-1335 0 -2013 3 -2013 10 0 7 681 10 2023 10 l2022 1 145 139 145 140 485 0 c434 0 502 2 631 20 79 11 162 23 184 26 198 25 572 76 580 79 28 10 86 4 92 -11z m-6497 -359 c17 -21 8 -50 -18 -53 -30 -4 -30 -39 1 -45 13 -3 8 -5 -15 -6 -36 -1 -38 1 -38 28 0 25 4 30 28 33 19 2 27 9 27 23 0 16 -6 20 -27 18 -16 -1 -28 2 -28 8 0 15 56 10 70 -6z m-97 -662 c-8 -3 -13 -25 -13 -59 0 -55 -9 -65 -40 -43 -11 8 -12 12 -2 16 20 8 15 81 -5 86 -10 3 2 5 27 5 25 0 39 -2 33 -5z m111 -25 c14 -40 -3 -82 -34 -86 -38 -4 -53 12 -53 56 0 53 9 64 46 60 24 -2 34 -10 41 -30z m-111 -635 c-8 -3 -13 -25 -13 -59 0 -55 -9 -65 -40 -43 -11 8 -12 12 -2 16 20 8 15 81 -5 86 -10 3 2 5 27 5 25 0 39 -2 33 -5z m97 -8 c17 -21 8 -50 -18 -53 -30 -4 -30 -39 1 -45 13 -3 8 -5 -15 -6 -36 -1 -38 1 -38 28 0 25 4 30 28 33 19 2 27 9 27 23 0 16 -6 20 -27 18 -16 -1 -28 2 -28 8 0 15 56 10 70 -6z m-112 -652 l-28 -4 21 -28 c27 -37 22 -75 -10 -79 -13 -2 -28 1 -34 7 -9 9 -5 11 13 9 35 -4 38 31 5 62 -35 33 -32 40 18 39 29 -2 34 -3 15 -6z m126 -25 c14 -40 -3 -82 -34 -86 -38 -4 -53 12 -53 56 0 53 9 64 46 60 24 -2 34 -10 41 -30z m-126 -635 l-28 -4 21 -28 c27 -37 22 -75 -10 -79 -13 -2 -28 1 -34 7 -9 9 -5 11 13 9 35 -4 38 31 5 62 -35 33 -32 40 18 39 29 -2 34 -3 15 -6z m112 -8 c17 -21 8 -50 -18 -53 -30 -4 -30 -39 1 -45 13 -3 8 -5 -15 -6 -36 -1 -38 1 -38 28 0 25 4 30 28 33 19 2 27 9 27 23 0 16 -6 20 -27 18 -16 -1 -28 2 -28 8 0 15 56 10 70 -6z m6960 -45 c0 -7 -1135 -10 -3385 -10 -2250 0 -3385 3 -3385 10 0 7 1135 10 3385 10 2250 0 3385 -3 3385 -10z"/>
<path d="M3420 4235 c0 -14 5 -25 10 -25 6 0 10 2 10 4 0 2 3 11 6 19 3 8 -2 17 -10 20 -12 5 -16 0 -16 -18z"/>
<path d="M3388 4233 c7 -3 16 -2 19 1 4 3 -2 6 -13 5 -11 0 -14 -3 -6 -6z"/>
<path d="M3455 4220 c-3 -5 1 -10 10 -10 9 0 13 5 10 10 -3 6 -8 10 -10 10 -2 0 -7 -4 -10 -10z"/>
<path d="M3380 4210 c0 -5 7 -10 15 -10 8 0 15 5 15 10 0 6 -7 10 -15 10 -8 0 -15 -4 -15 -10z"/>
<path d="M3388 4183 c7 -3 16 -2 19 1 4 3 -2 6 -13 5 -11 0 -14 -3 -6 -6z"/>
<path d="M3610 4199 c0 -14 5 -19 17 -17 26 5 29 38 4 38 -15 0 -21 -6 -21 -21z"/>
<path d="M3610 4148 c0 -10 7 -18 15 -18 8 0 15 8 15 18 0 10 -7 19 -15 19 -8 0 -15 -9 -15 -19z"/>
<path d="M4410 4235 c0 -14 5 -25 10 -25 6 0 10 2 10 4 0 2 3 11 6 19 3 8 -2 17 -10 20 -12 5 -16 0 -16 -18z"/>
<path d="M4378 4233 c7 -3 16 -2 19 1 4 3 -2 6 -13 5 -11 0 -14 -3 -6 -6z"/>
<path d="M4445 4220 c-3 -5 1 -10 10 -10 9 0 13 5 10 10 -3 6 -8 10 -10 10 -2 0 -7 -4 -10 -10z"/>
<path d="M4370 4210 c0 -5 7 -10 15 -10 8 0 15 5 15 10 0 6 -7 10 -15 10 -8 0 -15 -4 -15 -10z"/>
<path d="M4378 4183 c7 -3 16 -2 19 1 4 3 -2 6 -13 5 -11 0 -14 -3 -6 -6z"/>
<path d="M4580 4230 c0 -5 11 -10 25 -10 14 0 25 5 25 10 0 6 -11 10 -25 10 -14 0 -25 -4 -25 -10z"/>
<path d="M4570 4160 c0 -5 16 -10 35 -10 19 0 35 5 35 10 0 6 -16 10 -35 10 -19 0 -35 -4 -35 -10z"/>
<path d="M3403 4143 c15 -2 37 -2 50 0 12 2 0 4 -28 4 -27 0 -38 -2 -22 -4z"/>
<path d="M3403 4123 c15 -2 37 -2 50 0 12 2 0 4 -28 4 -27 0 -38 -2 -22 -4z"/>
<path d="M4393 4143 c15 -2 37 -2 50 0 12 2 0 4 -28 4 -27 0 -38 -2 -22 -4z"/>
<path d="M4393 4123 c15 -2 37 -2 50 0 12 2 0 4 -28 4 -27 0 -38 -2 -22 -4z"/>
<path d="M974 3826 c-7 -19 3 -36 22 -36 10 0 14 8 12 22 -4 26 -26 36 -34 14z"/>
<path d="M2914 3829 c-3 -6 -2 -15 4 -21 13 -13 32 -2 32 18 0 16 -26 19 -36 3z"/>
<path d="M2914 3769 c-10 -17 13 -36 27 -22 12 12 4 33 -11 33 -5 0 -12 -5 -16 -11z"/>
<path d="M3873 3774 c-7 -18 11 -39 26 -30 17 11 13 46 -4 46 -9 0 -18 -7 -22 -16z"/>
<path d="M4894 3827 c-10 -28 0 -82 16 -82 11 0 15 12 15 44 0 44 -19 68 -31 38z"/>
<path d="M274 3587 c-10 -28 0 -82 16 -82 11 0 15 12 15 44 0 44 -19 68 -31 38z"/>
<path d="M4450 2728 c-85 -82 -225 -218 -310 -301 -85 -82 -148 -148 -140 -145 8 3 80 24 160 46 80 23 210 60 290 83 126 36 185 52 225 62 117 30 219 68 585 215 239 96 444 178 455 183 11 4 -234 8 -545 8 l-565 0 -155 -151z"/>
<path d="M1421 2216 c2 -2 117 -50 254 -106 138 -55 258 -105 267 -111 11 -5 216 -9 495 -9 l478 0 205 55 c113 31 213 58 224 60 54 12 402 108 405 111 2 2 -521 4 -1164 4 -643 0 -1166 -2 -1164 -4z"/>
<path d="M2026 1551 c5 -4 95 -66 199 -136 105 -71 253 -171 330 -224 244 -166 357 -241 365 -241 4 0 37 42 74 93 72 100 250 343 269 367 23 29 93 125 101 138 6 9 -131 12 -670 12 -382 0 -674 -4 -668 -9z"/>
<path d="M274 2257 c-10 -28 0 -82 16 -82 11 0 15 12 15 44 0 44 -19 68 -31 38z"/>
<path d="M274 937 c-10 -28 0 -82 16 -82 11 0 15 12 15 44 0 44 -19 68 -31 38z"/>
</g>


</svg>